<mxfile host="app.diagrams.net" modified="2024-03-26T01:03:25.563Z" agent="Mozilla/5.0 (Macintosh; Intel Mac OS X 10_15_7) AppleWebKit/537.36 (KHTML, like Gecko) Chrome/123.0.0.0 Safari/537.36" etag="rFujZP6l_bTusEka8jaM" version="24.1.0" type="device">
  <diagram name="Specification" id="O7guWKUaf0JWwatWyiI9">
    <mxGraphModel dx="1434" dy="762" grid="1" gridSize="10" guides="1" tooltips="1" connect="1" arrows="1" fold="1" page="1" pageScale="1" pageWidth="827" pageHeight="1169" math="0" shadow="0">
      <root>
        <mxCell id="0" />
        <mxCell id="1" parent="0" />
        <mxCell id="7KezUDTG5KgQ72eP-DHj-3" style="edgeStyle=orthogonalEdgeStyle;rounded=0;orthogonalLoop=1;jettySize=auto;html=1;entryX=0.5;entryY=0;entryDx=0;entryDy=0;" edge="1" parent="1" source="7KezUDTG5KgQ72eP-DHj-1" target="7KezUDTG5KgQ72eP-DHj-2">
          <mxGeometry relative="1" as="geometry" />
        </mxCell>
        <mxCell id="7KezUDTG5KgQ72eP-DHj-1" value="" style="shape=umlActor;verticalLabelPosition=bottom;verticalAlign=top;html=1;outlineConnect=0;" vertex="1" parent="1">
          <mxGeometry x="399" y="20" width="30" height="60" as="geometry" />
        </mxCell>
        <mxCell id="7KezUDTG5KgQ72eP-DHj-18" style="edgeStyle=orthogonalEdgeStyle;rounded=0;orthogonalLoop=1;jettySize=auto;html=1;entryX=0.5;entryY=0;entryDx=0;entryDy=0;" edge="1" parent="1" source="7KezUDTG5KgQ72eP-DHj-2" target="7KezUDTG5KgQ72eP-DHj-15">
          <mxGeometry relative="1" as="geometry" />
        </mxCell>
        <mxCell id="7KezUDTG5KgQ72eP-DHj-2" value="FE" style="rounded=0;whiteSpace=wrap;html=1;" vertex="1" parent="1">
          <mxGeometry x="354" y="150" width="120" height="60" as="geometry" />
        </mxCell>
        <mxCell id="7KezUDTG5KgQ72eP-DHj-4" value="User Manager&lt;br&gt;(reg, auth)" style="rounded=0;whiteSpace=wrap;html=1;" vertex="1" parent="1">
          <mxGeometry x="254" y="380" width="120" height="60" as="geometry" />
        </mxCell>
        <mxCell id="7KezUDTG5KgQ72eP-DHj-7" value="Blog&lt;br&gt;(posts, likes, comments)" style="rounded=0;whiteSpace=wrap;html=1;" vertex="1" parent="1">
          <mxGeometry x="54" y="380" width="120" height="60" as="geometry" />
        </mxCell>
        <mxCell id="7KezUDTG5KgQ72eP-DHj-30" style="edgeStyle=orthogonalEdgeStyle;rounded=0;orthogonalLoop=1;jettySize=auto;html=1;entryX=0.5;entryY=0;entryDx=0;entryDy=0;entryPerimeter=0;" edge="1" parent="1" source="7KezUDTG5KgQ72eP-DHj-8" target="7KezUDTG5KgQ72eP-DHj-27">
          <mxGeometry relative="1" as="geometry">
            <mxPoint x="410" y="500" as="targetPoint" />
            <Array as="points">
              <mxPoint x="500" y="470" />
              <mxPoint x="356" y="470" />
            </Array>
          </mxGeometry>
        </mxCell>
        <mxCell id="7KezUDTG5KgQ72eP-DHj-8" value="Messages" style="rounded=0;whiteSpace=wrap;html=1;" vertex="1" parent="1">
          <mxGeometry x="454" y="380" width="120" height="60" as="geometry" />
        </mxCell>
        <mxCell id="7KezUDTG5KgQ72eP-DHj-26" style="edgeStyle=orthogonalEdgeStyle;rounded=0;orthogonalLoop=1;jettySize=auto;html=1;" edge="1" parent="1" source="7KezUDTG5KgQ72eP-DHj-14" target="7KezUDTG5KgQ72eP-DHj-25">
          <mxGeometry relative="1" as="geometry" />
        </mxCell>
        <mxCell id="7KezUDTG5KgQ72eP-DHj-14" value="Notifications" style="rounded=0;whiteSpace=wrap;html=1;" vertex="1" parent="1">
          <mxGeometry x="660" y="380" width="120" height="60" as="geometry" />
        </mxCell>
        <mxCell id="7KezUDTG5KgQ72eP-DHj-19" style="edgeStyle=orthogonalEdgeStyle;rounded=0;orthogonalLoop=1;jettySize=auto;html=1;entryX=0.5;entryY=0;entryDx=0;entryDy=0;" edge="1" parent="1" source="7KezUDTG5KgQ72eP-DHj-15" target="7KezUDTG5KgQ72eP-DHj-4">
          <mxGeometry relative="1" as="geometry">
            <Array as="points">
              <mxPoint x="414" y="350" />
              <mxPoint x="314" y="350" />
            </Array>
          </mxGeometry>
        </mxCell>
        <mxCell id="7KezUDTG5KgQ72eP-DHj-20" style="edgeStyle=orthogonalEdgeStyle;rounded=0;orthogonalLoop=1;jettySize=auto;html=1;entryX=0.5;entryY=0;entryDx=0;entryDy=0;" edge="1" parent="1" source="7KezUDTG5KgQ72eP-DHj-15" target="7KezUDTG5KgQ72eP-DHj-7">
          <mxGeometry relative="1" as="geometry">
            <Array as="points">
              <mxPoint x="414" y="350" />
              <mxPoint x="114" y="350" />
            </Array>
          </mxGeometry>
        </mxCell>
        <mxCell id="7KezUDTG5KgQ72eP-DHj-21" style="edgeStyle=orthogonalEdgeStyle;rounded=0;orthogonalLoop=1;jettySize=auto;html=1;entryX=0.5;entryY=0;entryDx=0;entryDy=0;" edge="1" parent="1" source="7KezUDTG5KgQ72eP-DHj-15" target="7KezUDTG5KgQ72eP-DHj-8">
          <mxGeometry relative="1" as="geometry">
            <Array as="points">
              <mxPoint x="414" y="350" />
              <mxPoint x="514" y="350" />
            </Array>
          </mxGeometry>
        </mxCell>
        <mxCell id="7KezUDTG5KgQ72eP-DHj-15" value="API Gateway" style="rounded=0;whiteSpace=wrap;html=1;" vertex="1" parent="1">
          <mxGeometry x="354" y="270" width="120" height="60" as="geometry" />
        </mxCell>
        <mxCell id="7KezUDTG5KgQ72eP-DHj-16" value="PostgreSQL" style="shape=cylinder3;whiteSpace=wrap;html=1;boundedLbl=1;backgroundOutline=1;size=15;" vertex="1" parent="1">
          <mxGeometry x="71" y="505" width="86" height="80" as="geometry" />
        </mxCell>
        <mxCell id="7KezUDTG5KgQ72eP-DHj-24" style="edgeStyle=orthogonalEdgeStyle;rounded=0;orthogonalLoop=1;jettySize=auto;html=1;entryX=0.5;entryY=1;entryDx=0;entryDy=0;" edge="1" parent="1" source="7KezUDTG5KgQ72eP-DHj-17" target="7KezUDTG5KgQ72eP-DHj-14">
          <mxGeometry relative="1" as="geometry" />
        </mxCell>
        <mxCell id="7KezUDTG5KgQ72eP-DHj-17" value="RabbitMQ" style="shape=cylinder3;whiteSpace=wrap;html=1;boundedLbl=1;backgroundOutline=1;size=15;" vertex="1" parent="1">
          <mxGeometry x="560" y="505" width="86" height="80" as="geometry" />
        </mxCell>
        <mxCell id="7KezUDTG5KgQ72eP-DHj-23" style="edgeStyle=orthogonalEdgeStyle;rounded=0;orthogonalLoop=1;jettySize=auto;html=1;entryX=0.5;entryY=0;entryDx=0;entryDy=0;entryPerimeter=0;" edge="1" parent="1" source="7KezUDTG5KgQ72eP-DHj-8" target="7KezUDTG5KgQ72eP-DHj-17">
          <mxGeometry relative="1" as="geometry">
            <Array as="points">
              <mxPoint x="530" y="470" />
              <mxPoint x="603" y="470" />
            </Array>
          </mxGeometry>
        </mxCell>
        <mxCell id="7KezUDTG5KgQ72eP-DHj-25" value="SMTP" style="shape=cylinder3;whiteSpace=wrap;html=1;boundedLbl=1;backgroundOutline=1;size=15;" vertex="1" parent="1">
          <mxGeometry x="690" y="200" width="60" height="80" as="geometry" />
        </mxCell>
        <mxCell id="7KezUDTG5KgQ72eP-DHj-27" value="MongoDB" style="shape=cylinder3;whiteSpace=wrap;html=1;boundedLbl=1;backgroundOutline=1;size=15;" vertex="1" parent="1">
          <mxGeometry x="313" y="505" width="86" height="80" as="geometry" />
        </mxCell>
        <mxCell id="7KezUDTG5KgQ72eP-DHj-28" style="edgeStyle=orthogonalEdgeStyle;rounded=0;orthogonalLoop=1;jettySize=auto;html=1;entryX=0.5;entryY=0;entryDx=0;entryDy=0;entryPerimeter=0;" edge="1" parent="1" source="7KezUDTG5KgQ72eP-DHj-7" target="7KezUDTG5KgQ72eP-DHj-16">
          <mxGeometry relative="1" as="geometry" />
        </mxCell>
        <mxCell id="7KezUDTG5KgQ72eP-DHj-29" style="edgeStyle=orthogonalEdgeStyle;rounded=0;orthogonalLoop=1;jettySize=auto;html=1;entryX=0.5;entryY=0;entryDx=0;entryDy=0;entryPerimeter=0;" edge="1" parent="1" source="7KezUDTG5KgQ72eP-DHj-4" target="7KezUDTG5KgQ72eP-DHj-27">
          <mxGeometry relative="1" as="geometry">
            <Array as="points">
              <mxPoint x="314" y="470" />
              <mxPoint x="356" y="470" />
            </Array>
          </mxGeometry>
        </mxCell>
      </root>
    </mxGraphModel>
  </diagram>
</mxfile>
